<svg id="Layer_1" height="512" viewBox="0 0 512 512" width="512" xmlns="http://www.w3.org/2000/svg" data-name="Layer 1"><path d="m237.8 29.234c24.994 24.994 16.971 73.539 16.971 73.539s-48.543 8.027-73.537-16.973-16.971-73.539-16.971-73.539 48.546-8.02 73.537 16.973z" fill="#869644"/><path d="m208.866 142.987a94.528 94.528 0 0 0 -50.958-14.987c-56.282 0-101.908 50.144-101.908 112 .739 34.181 5.229 66.041 21.837 120a477.579 477.579 0 0 0 48.415 107.889c13.738 22.572 36.819 36.111 61.529 36.111h19.5c19.111 0 37.482-8.123 51.268-22.668l1.266-1.332.187.206c13.863 15.235 32.664 23.794 52.269 23.794h22.578c23.245 0 45.1-12.037 59.1-32.435a394.262 394.262 0 0 0 47.844-95.565c21.791-63.709 23.2-103.59 21.837-136 0-7.472-.687-47.147-29.848-79.2-18.442-20.268-43.919-32.8-72.06-32.8a93.454 93.454 0 0 0 -30.312 5.038 97.048 97.048 0 0 0 -20.643 9.947 94.109 94.109 0 0 0 -101.9 0z" fill="#ef4e2e"/><path d="m331.41 133.038a97.047 97.047 0 0 0 -20.643 9.947 94.109 94.109 0 0 0 -101.9 0 94.528 94.528 0 0 0 -50.959-14.985c-27.663 0-52.746 12.119-71.108 31.783 40.185-7.451 99.882-6.415 160.874 38.385 0 0 48.074 36.834 96.16-14.167 25.378-26.917 57.437-32.1 82.058-31-17.52-15.627-39.847-25-64.169-25a93.454 93.454 0 0 0 -30.313 5.037z" fill="#db381d"/><path d="m361.723 240c0-61.856-45.626-112-101.908-112s-101.907 50.144-101.907 112z" fill="#ef4e2e"/><path d="m263.1 154.535c11.492 11.492-8.736 20.148-26.551 37.963s-26.471 38.044-37.963 26.551-6.366-35.251 11.449-53.066 41.565-22.94 53.065-11.448z" fill="#f9eee5" opacity=".3"/><g fill="#b73925" opacity=".3"><path d="m267.946 487.761q.237.175.511.363l-1.532-1.237c.34.29.675.59 1.021.874z"/><path d="m433.783 160.8c-18.442-20.268-43.919-32.8-72.06-32.8a93.85 93.85 0 0 0 -9.466.5c25.222 20.565 65.677 77.238 20.847 215.5-53.931 166.337-95.287 150.531-104.647 144.123l1.752 1.414a69.378 69.378 0 0 0 42.062 14.463h22.578c23.245 0 45.1-12.037 59.1-32.435a394.262 394.262 0 0 0 47.844-95.565c21.791-63.709 23.2-103.59 21.837-136 0-7.472-.686-47.147-29.847-79.2z"/></g><path d="m70.191 362.354a486.2 486.2 0 0 0 49.227 109.694c15.226 25.016 40.782 39.952 68.363 39.952h19.5a77.643 77.643 0 0 0 52.522-20.7 78.551 78.551 0 0 0 52.468 20.7h22.578c25.709 0 50.268-13.424 65.694-35.909a402.494 402.494 0 0 0 48.82-97.5c21.96-64.206 23.692-104.645 22.268-138.761-.025-11.833-2.453-52.011-31.931-84.407-20.783-22.844-48.476-35.423-77.977-35.423a101.467 101.467 0 0 0 -32.9 5.468 104.6 104.6 0 0 0 -18.093 8.21 102.08 102.08 0 0 0 -47.032-13.6 167.574 167.574 0 0 1 4.2-38.711c7.449-31.842 23.492-54.12 47.683-66.216l-7.159-14.306c-21.576 10.788-37.979 28.847-48.3 52.893-3-10.855-8.123-21.619-16.664-30.16-27.581-27.578-78.351-19.562-80.499-19.207a8 8 0 0 0 -6.589 6.589c-.355 2.147-8.376 52.918 19.207 80.5 17.209 17.209 43.439 20.559 61.26 20.559 4.206 0 7.934-.188 10.974-.423-.137 3.507-.158 6.59-.124 9.139a102.5 102.5 0 0 0 -38.79 12.947 102.627 102.627 0 0 0 -50.989-13.682c-60.608 0-109.908 53.832-109.908 120v.173c.721 33.261 4.684 65.301 22.191 122.181zm157.77-266.672c-12.57-.921-29.9-4.364-41.07-15.536-16.981-16.981-16.469-47.78-15.4-60.665a126.948 126.948 0 0 1 19.581-.126c12.569.921 29.9 4.364 41.07 15.536 13.212 13.212 15.833 34.787 15.841 49.783l-32.808-32.812-11.313 11.313 32.823 32.825c-2.717 0-5.649-.093-8.724-.318zm-70.053 40.318a86.21 86.21 0 0 1 36.073 7.969c-26.741 21.909-44.073 56.8-44.073 96.031h16c0-57.346 42.127-104 93.908-104s93.908 46.654 93.908 104h16c0-39.231-17.333-74.124-44.076-96.034a87.392 87.392 0 0 1 8.352-3.358 85.5 85.5 0 0 1 27.723-4.608c24.939 0 48.429 10.721 66.143 30.188 25.757 28.312 27.763 63.654 27.764 73.812q0 .168.007.335c1.372 32.59-.273 71.268-21.413 133.075a386.52 386.52 0 0 1 -46.875 93.628c-12.441 18.135-32.068 28.962-52.5 28.962h-22.578c-17.463 0-33.925-7.521-46.351-21.178l-.187-.206a8 8 0 0 0 -11.724-.12s-22.009 21.504-46.724 21.504h-19.5c-21.95 0-42.4-12.064-54.695-32.271a470.2 470.2 0 0 1 -47.6-106.083c-16.953-55.053-20.796-85.879-21.49-117.732.041-57.307 42.152-103.914 93.908-103.914z"/><path d="m123.878 191.641a2.244 2.244 0 0 1 -.247.074l-4.239-15.429c-3.582.984-35 11.808-35 87.714h16c.008-63.426 23.252-72.278 23.486-72.359z"/><path d="m328.16 472.18c12.813 0 50.78-7.014 70.444-86.253l-15.529-3.854c-10.381 41.835-25.529 59.768-36.408 67.445-11.054 7.8-19.672 6.644-20.032 6.59l.133.023-2.883 15.738a25.1 25.1 0 0 0 4.275.311z"/></svg>