<svg id="Capa_1" enable-background="new 0 0 512 512" height="512" viewBox="0 0 512 512" width="512" xmlns="http://www.w3.org/2000/svg"><g><path d="m422 61.068v-53.568h-30l-20.903 92.891 66.128.609c-9.727-11.06-15.225-25.203-15.225-39.932z" fill="#ffba48"/><path d="m392 7.5h-30v92.231l39.097.659c-5.943-12.21-9.097-25.636-9.097-39.322z" fill="#ffd185"/><path d="m437.225 101c-6.234-7.07-13.175-13.855-20.435-19.879-6.823-5.662-15.508-7.779-23.731-6.48v144.859l-196.059 285c157.226-.443 285-128.123 285-285 0-45.348-16.915-86.819-44.775-118.5z" fill="#ff9a42"/><path d="m362 99.731c-18.829 25.046-30 56.128-30 89.769v30c0 74.31-60.525 134.79-135 135-55.857.157-107.988 16.385-152 44.267v60.733l332-45 45-269.884z" fill="#ffd185"/><path d="m414.696 120.812c-11.582-13.172-19.026-29.21-21.636-46.17-5.98.945-11.716 3.695-16.309 8.221-5.323 5.245-10.253 10.887-14.75 16.869 9.415 12.523 15 28.064 15 44.884v74.884c0 98.973-80.69 179.72-179.873 180-55.724.157-109.248 19.499-152.128 54.7v6.033c44.012 27.882 96.143 44.109 152 44.267 140.676-.443 255-128.123 255-285 0-36.286-13.248-71.335-37.304-98.688z" fill="#ffba48"/><path d="m60 395.75h-15c-8.284 0-15 6.716-15 15v37.5c0 8.284 6.716 15 15 15h15c8.284 0 15-6.716 15-15v-37.5c0-8.284-6.716-15-15-15z" fill="#4f4f4f"/><circle cx="452" cy="219.5" r="7.5"/><circle cx="197" cy="474.5" r="7.5"/><circle cx="167" cy="444.5" r="7.5"/><path d="m442.856 96.048c-8.613-9.794-13.356-22.217-13.356-34.979v-53.569c0-4.142-3.357-7.5-7.5-7.5h-60c-4.143 0-7.5 3.358-7.5 7.5v89.76c-19.637 26.989-30 58.824-30 92.24v30c0 70.106-57.206 127.302-127.521 127.5-52.595.148-104.119 14.411-149.158 41.25h-2.821c-12.406 0-22.5 10.093-22.5 22.5v37.5c0 12.407 10.094 22.5 22.5 22.5h2.821c45.039 26.839 96.563 41.102 149.201 41.25 161.273-.454 292.478-131.669 292.478-292.5 0-45.407-16.565-89.25-46.644-123.452zm-405.356 352.202v-37.5c0-4.136 3.364-7.5 7.5-7.5h15c4.136 0 7.5 3.364 7.5 7.5v37.5c0 4.136-3.364 7.5-7.5 7.5h-15c-4.136 0-7.5-3.364-7.5-7.5zm159.521 48.75c-43.489-.122-86.203-10.416-124.746-29.908 6.15-4.02 10.224-10.962 10.224-18.842v-10.778c34.865-19.834 74.41-30.359 114.648-30.472 103.307-.292 187.353-84.404 187.353-187.5 0-4.142-3.357-7.5-7.5-7.5s-7.5 3.358-7.5 7.5c0 94.848-77.336 172.231-172.395 172.5-39.996.113-79.349 9.893-114.605 28.383v-9.633c0-7.88-4.075-14.821-10.224-18.841 38.543-19.492 81.257-29.786 124.745-29.909 78.563-.221 142.479-64.146 142.479-142.5v-30c0-27.307 7.659-53.447 22.238-76.243 5.1 9.616 7.762 20.285 7.762 31.359v44.884c0 4.142 3.357 7.5 7.5 7.5s7.5-3.358 7.5-7.5v-44.884c0-17.09-5.185-33.386-15-47.304v-82.312h45v46.068c0 16.411 6.07 32.351 17.093 44.885 27.669 31.463 42.907 71.788 42.907 113.547 0 152.583-124.495 277.069-277.479 277.5z"/></g></svg>